<svg width="51" height="51" viewBox="0 0 51 51" fill="none" xmlns="http://www.w3.org/2000/svg">
<path d="M25.5 50.5C39.3071 50.5 50.5 39.3071 50.5 25.5C50.5 11.6929 39.3071 0.5 25.5 0.5C11.6929 0.5 0.5 11.6929 0.5 25.5C0.5 39.3071 11.6929 50.5 25.5 50.5Z" fill="#FFDD67"/>
<path d="M15.9167 25.1668C18.2179 25.1668 20.0833 23.3013 20.0833 21.0002C20.0833 18.699 18.2179 16.8335 15.9167 16.8335C13.6155 16.8335 11.75 18.699 11.75 21.0002C11.75 23.3013 13.6155 25.1668 15.9167 25.1668Z" fill="#664E27"/>
<path d="M35.0837 25.1668C37.3848 25.1668 39.2503 23.3013 39.2503 21.0002C39.2503 18.699 37.3848 16.8335 35.0837 16.8335C32.7825 16.8335 30.917 18.699 30.917 21.0002C30.917 23.3013 32.7825 25.1668 35.0837 25.1668Z" fill="#664E27"/>
<path d="M18.0001 38.5C22.8334 34.5 28.1668 34.5 33.0001 38.5C33.5834 39 34.0834 38.1667 33.6668 37.4167C32.1668 34.5833 29.2501 32 25.5001 32C21.7501 32 18.7501 34.5833 17.3334 37.4167C16.9168 38.1667 17.4168 39 18.0001 38.5Z" fill="#664E27"/>
</svg>
