<svg width="80" height="79" viewBox="0 0 80 79" fill="none" xmlns="http://www.w3.org/2000/svg">
<path d="M40.2485 17.2982L40.9756 18.0035L41.6765 17.2722C42.0878 16.8432 42.4765 16.422 42.8567 16.0101C43.6441 15.1569 44.3951 14.3431 45.2354 13.5799L45.2358 13.5795C51.8564 7.55988 60.6529 6.43534 67.426 10.5087C74.4463 14.7327 78.0253 23.6635 75.9153 32.155L75.9153 32.1552C73.9742 39.9762 69.2433 46.1954 63.7703 52.116L64.5097 52.7995L63.7703 52.116C57.1097 59.3215 49.4007 65.3498 41.4188 71.1405L41.4188 71.1406C41.3971 71.1563 41.3297 71.1958 41.2085 71.238C41.0929 71.2782 40.9592 71.3102 40.8264 71.3279C40.691 71.3461 40.5825 71.3461 40.5128 71.338C40.509 71.3376 40.5056 71.3371 40.5023 71.3367C29.5449 63.3558 19.0028 55.1107 11.2568 43.9689L11.2565 43.9685C7.78486 38.9808 5.23771 33.7104 5.11831 27.6454L5.11831 27.6453C4.96034 19.649 9.47508 12.3857 16.1757 9.49408L16.1759 9.494C22.8874 6.59612 31.0764 8.34513 36.9184 14.0697C37.582 14.7203 38.253 15.3686 38.9662 16.0576C39.3775 16.4548 39.8027 16.8656 40.2485 17.2982ZM40.4671 71.33C40.4669 71.3299 40.4687 71.3303 40.4723 71.3315C40.469 71.3307 40.4673 71.3301 40.4671 71.33Z" fill="#FE0135" stroke="#FE0135" stroke-width="2.01375"/>
</svg>
