<svg width="40" height="40" viewBox="0 0 79 79" fill="#FFF" xmlns="http://www.w3.org/2000/svg">
<path d="M39.7577 16.3699L40.1188 16.7202L40.4668 16.357C40.8633 15.9434 41.2447 15.5303 41.6215 15.122C42.4178 14.2594 43.1941 13.4184 44.0509 12.6402L44.0511 12.6401C50.8139 6.49107 59.8529 5.30559 66.8437 9.50995C74.0667 13.8561 77.7236 23.0193 75.5635 31.7128L75.5635 31.7129C73.5907 39.6615 68.7873 45.9582 63.2988 51.8956L63.6659 52.235L63.2988 51.8956C56.6034 59.1388 48.8616 65.1905 40.8727 70.9864L41.1664 71.3911L40.8727 70.9864C40.7128 71.1024 40.3964 71.2194 40.05 71.2659C39.8835 71.2882 39.7316 71.291 39.6107 71.277C39.5509 71.2701 39.5047 71.2598 39.4713 71.2489C39.4549 71.2435 39.4431 71.2385 39.4351 71.2346C39.4271 71.2307 39.424 71.2284 39.4244 71.2287C28.4423 63.2321 17.8112 54.9338 9.99684 43.6938L9.99669 43.6936C6.49864 38.6679 3.89 33.2989 3.76778 27.0909L3.76778 27.0909C3.60611 18.9071 8.22503 11.4445 15.1311 8.46423L15.1312 8.4642C22.0549 5.47473 30.4592 7.293 36.4294 13.1432C37.0918 13.7927 37.7604 14.4386 38.4725 15.1264C38.884 15.524 39.31 15.9355 39.7577 16.3699Z" stroke="red" stroke-width="4"/>
</svg>
